<mxfile host="app.diagrams.net" modified="2023-11-12T04:12:53.311Z" agent="Mozilla/5.0 (Windows NT 10.0; Win64; x64) AppleWebKit/537.36 (KHTML, like Gecko) Chrome/119.0.0.0 Safari/537.36" etag="1O1qh3jvasz0wXh379xT" version="22.1.0" type="device">
  <diagram name="Page-1" id="G8LfvzNhx9Eik4R6vJZt">
    <mxGraphModel dx="1434" dy="756" grid="1" gridSize="10" guides="1" tooltips="1" connect="1" arrows="1" fold="1" page="1" pageScale="1" pageWidth="2339" pageHeight="3300" math="0" shadow="0">
      <root>
        <mxCell id="0" />
        <mxCell id="1" parent="0" />
        <mxCell id="0wa7yzFrVu8zA_RwSMs_-1" value="Email Notification" style="rounded=0;whiteSpace=wrap;html=1;" vertex="1" parent="1">
          <mxGeometry x="160" y="130" width="120" height="60" as="geometry" />
        </mxCell>
        <mxCell id="0wa7yzFrVu8zA_RwSMs_-2" value="Push Notification" style="rounded=0;whiteSpace=wrap;html=1;" vertex="1" parent="1">
          <mxGeometry x="160" y="260" width="120" height="60" as="geometry" />
        </mxCell>
        <mxCell id="0wa7yzFrVu8zA_RwSMs_-10" style="rounded=0;orthogonalLoop=1;jettySize=auto;html=1;exitX=1;exitY=0.5;exitDx=0;exitDy=0;entryX=0;entryY=0.5;entryDx=0;entryDy=0;" edge="1" parent="1" source="0wa7yzFrVu8zA_RwSMs_-5" target="0wa7yzFrVu8zA_RwSMs_-4">
          <mxGeometry relative="1" as="geometry" />
        </mxCell>
        <mxCell id="0wa7yzFrVu8zA_RwSMs_-5" value="Notification" style="swimlane;whiteSpace=wrap;html=1;" vertex="1" parent="1">
          <mxGeometry x="130" y="80" width="200" height="400" as="geometry" />
        </mxCell>
        <mxCell id="0wa7yzFrVu8zA_RwSMs_-3" value="Sms Notification" style="rounded=0;whiteSpace=wrap;html=1;" vertex="1" parent="0wa7yzFrVu8zA_RwSMs_-5">
          <mxGeometry x="30" y="300" width="120" height="60" as="geometry" />
        </mxCell>
        <mxCell id="0wa7yzFrVu8zA_RwSMs_-15" style="rounded=0;orthogonalLoop=1;jettySize=auto;html=1;exitX=1;exitY=0.5;exitDx=0;exitDy=0;entryX=0;entryY=0.5;entryDx=0;entryDy=0;" edge="1" parent="1" source="0wa7yzFrVu8zA_RwSMs_-8" target="0wa7yzFrVu8zA_RwSMs_-9">
          <mxGeometry relative="1" as="geometry" />
        </mxCell>
        <mxCell id="0wa7yzFrVu8zA_RwSMs_-8" value="System handler" style="swimlane;whiteSpace=wrap;html=1;" vertex="1" parent="1">
          <mxGeometry x="420" y="80" width="730" height="400" as="geometry" />
        </mxCell>
        <mxCell id="0wa7yzFrVu8zA_RwSMs_-11" style="edgeStyle=orthogonalEdgeStyle;rounded=0;orthogonalLoop=1;jettySize=auto;html=1;exitX=1;exitY=0.5;exitDx=0;exitDy=0;entryX=0;entryY=0.5;entryDx=0;entryDy=0;" edge="1" parent="0wa7yzFrVu8zA_RwSMs_-8" source="0wa7yzFrVu8zA_RwSMs_-4" target="0wa7yzFrVu8zA_RwSMs_-6">
          <mxGeometry relative="1" as="geometry" />
        </mxCell>
        <mxCell id="0wa7yzFrVu8zA_RwSMs_-4" value="Email Handler&amp;nbsp;" style="rounded=0;whiteSpace=wrap;html=1;" vertex="1" parent="0wa7yzFrVu8zA_RwSMs_-8">
          <mxGeometry x="70" y="170" width="120" height="60" as="geometry" />
        </mxCell>
        <mxCell id="0wa7yzFrVu8zA_RwSMs_-12" style="edgeStyle=orthogonalEdgeStyle;rounded=0;orthogonalLoop=1;jettySize=auto;html=1;exitX=1;exitY=0.5;exitDx=0;exitDy=0;entryX=0;entryY=0.5;entryDx=0;entryDy=0;" edge="1" parent="0wa7yzFrVu8zA_RwSMs_-8" source="0wa7yzFrVu8zA_RwSMs_-6" target="0wa7yzFrVu8zA_RwSMs_-7">
          <mxGeometry relative="1" as="geometry" />
        </mxCell>
        <mxCell id="0wa7yzFrVu8zA_RwSMs_-6" value="SMS Handler&amp;nbsp;" style="rounded=0;whiteSpace=wrap;html=1;" vertex="1" parent="0wa7yzFrVu8zA_RwSMs_-8">
          <mxGeometry x="280" y="170" width="120" height="60" as="geometry" />
        </mxCell>
        <mxCell id="0wa7yzFrVu8zA_RwSMs_-7" value="Push Handler" style="rounded=0;whiteSpace=wrap;html=1;" vertex="1" parent="0wa7yzFrVu8zA_RwSMs_-8">
          <mxGeometry x="500" y="170" width="120" height="60" as="geometry" />
        </mxCell>
        <mxCell id="0wa7yzFrVu8zA_RwSMs_-9" value="Client" style="rounded=0;whiteSpace=wrap;html=1;" vertex="1" parent="1">
          <mxGeometry x="1220" y="250" width="120" height="60" as="geometry" />
        </mxCell>
      </root>
    </mxGraphModel>
  </diagram>
</mxfile>
